{"accessors": [{"bufferView": 2, "componentType": 5126, "count": 456, "max": [9.934586524963379, 2.7980337142944336, 14.843254089355469], "min": [-13.554425239562988, 0.01950714737176895, -14.843252182006836], "type": "VEC3"}, {"bufferView": 2, "byteOffset": 5472, "componentType": 5126, "count": 456, "max": [1.0, 1.0, 1.0], "min": [-1.0, -1.0, -1.0], "type": "VEC3"}, {"bufferView": 3, "componentType": 5126, "count": 456, "max": [1.0, 1.0, 1.0, 1.0], "min": [-0.2591770887374878, -0.005598265677690506, -0.9999904632568359, 1.0], "type": "VEC4"}, {"bufferView": 1, "componentType": 5126, "count": 456, "max": [1.0, 0.9896501898765564], "min": [0.0, 0.0], "type": "VEC2"}, {"bufferView": 0, "componentType": 5125, "count": 1512, "type": "SCALAR"}, {"bufferView": 2, "byteOffset": 10944, "componentType": 5126, "count": 42, "max": [10.037006378173828, 2.7788820266723633, 13.7838134765625], "min": [-13.511496543884277, 0.0, -14.401780128479004], "type": "VEC3"}, {"bufferView": 2, "byteOffset": 11448, "componentType": 5126, "count": 42, "max": [1.0, 1.0, 1.0], "min": [-0.9998815655708313, -1.0, -1.0], "type": "VEC3"}, {"bufferView": 1, "byteOffset": 3648, "componentType": 5126, "count": 42, "max": [0.875, 1.0], "min": [0.125, 0.0], "type": "VEC2"}, {"bufferView": 0, "byteOffset": 6048, "componentType": 5125, "count": 96, "type": "SCALAR"}], "asset": {"extras": {"author": "Qu3st10n (https://sketchfab.com/Qu3st10n)", "license": "CC-BY-NC-SA-4.0 (http://creativecommons.org/licenses/by-nc-sa/4.0/)", "source": "https://sketchfab.com/3d-models/magazines-bae987c869f644e695f100f28cc38dd9", "title": "Magazines"}, "generator": "Sketchfab-12.68.0", "version": "2.0"}, "bufferViews": [{"buffer": 0, "byteLength": 6432, "name": "floatBufferViews", "target": 34963}, {"buffer": 0, "byteLength": 3984, "byteOffset": 6432, "byteStride": 8, "name": "floatBufferViews", "target": 34962}, {"buffer": 0, "byteLength": 11952, "byteOffset": 10416, "byteStride": 12, "name": "floatBufferViews", "target": 34962}, {"buffer": 0, "byteLength": 7296, "byteOffset": 22368, "byteStride": 16, "name": "floatBufferViews", "target": 34962}], "buffers": [{"byteLength": 29664, "uri": "data:application/octet-stream;base64,"}], "images": [{"mimeType": "image/png", "uri": "data:image/png;base64,"}, {"mimeType": "image/png", "uri": "data:image/png;base64,"}, {"mimeType": "image/png", "uri": "data:image/png;base64,"}], "materials": [{"doubleSided": true, "name": "Magazines_mat", "normalTexture": {"index": 2}, "pbrMetallicRoughness": {"baseColorTexture": {"index": 0}, "metallicFactor": 0.0, "metallicRoughnessTexture": {"index": 1}}}, {"alphaMode": "BLEND", "doubleSided": true, "name": "proxy", "pbrMetallicRoughness": {"baseColorFactor": [0.5, 0.5, 0.5, 0.0], "metallicFactor": 0.0, "roughnessFactor": 0.6}}], "meshes": [{"name": "Magazines_Magazines_mat_0", "primitives": [{"attributes": {"NORMAL": 1, "POSITION": 0, "TANGENT": 2, "TEXCOORD_0": 3}, "indices": 4, "material": 0, "mode": 4}]}, {"name": "proxy_magazines_proxy_0", "primitives": [{"attributes": {"NORMAL": 6, "POSITION": 5, "TEXCOORD_0": 7}, "indices": 8, "material": 1, "mode": 4}]}], "nodes": [{"children": [1], "matrix": [1.0, 0.0, 0.0, 0.0, 0.0, 2.220446049250313e-16, -1.0, 0.0, 0.0, 1.0, 2.220446049250313e-16, 0.0, 0.0, 0.0, 0.0, 1.0], "name": "Sketchfab_model"}, {"children": [2], "matrix": [1.0, 0.0, 0.0, 0.0, 0.0, 0.0, 1.0, 0.0, 0.0, -1.0, 0.0, 0.0, 0.0, 0.0, 0.0, 1.0], "name": "1250ea67c3324096a9e82832990236b4.fbx"}, {"children": [3], "name": "RootNode"}, {"children": [4, 5], "matrix": [0.009999999776482582, 0.0, 0.0, 0.0, 0.0, 0.009999999776482582, 0.0, 0.0, 0.0, 0.0, 0.009999999776482582, 0.0, 0.0, 0.0, 0.0, 1.0], "name": "Magazines"}, {"mesh": 0, "name": "Magazines_Magazines_mat_0"}, {"children": [6], "name": "proxy_magazines"}, {"mesh": 1, "name": "proxy_magazines_proxy_0"}], "samplers": [{"magFilter": 9729, "minFilter": 9987, "wrapS": 10497, "wrapT": 10497}], "scene": 0, "scenes": [{"name": "Sketchfab_Scene", "nodes": [0]}], "textures": [{"sampler": 0, "source": 0}, {"sampler": 0, "source": 1}, {"sampler": 0, "source": 2}]}